<svg width="41" height="24" viewBox="0 0 41 24" fill="none" xmlns="http://www.w3.org/2000/svg">
<path d="M37.7552 17.8396C38.4434 18.3007 39.3751 18.1166 39.8362 17.4284C40.2974 16.7401 40.1132 15.8084 39.425 15.3473L38.5901 16.5934L37.7552 17.8396ZM38.507 16.5378L39.3419 15.2916C39.2854 15.2537 39.2263 15.2197 39.1651 15.1899L38.507 16.5378ZM37.7994 16.1923L36.8666 17.3669C36.9516 17.4344 37.0437 17.4925 37.1412 17.5402L37.7994 16.1923ZM37.0904 15.6293L38.0232 14.4546C37.7327 14.2239 37.367 14.1091 36.9968 14.1322L37.0904 15.6293ZM36.0685 15.6932L34.9991 16.745C35.3039 17.0549 35.7282 17.2174 36.1621 17.1902L36.0685 15.6932ZM35.4163 15.03L36.4857 13.9782C36.3787 13.8694 36.2557 13.7775 36.1209 13.7058L35.4163 15.03ZM34.6338 14.6137L35.3384 13.2894C35.2058 13.2188 35.0632 13.1686 34.9156 13.1404L34.6338 14.6137ZM33.6977 14.4346L32.8589 15.6782C33.0271 15.7916 33.2166 15.8698 33.4159 15.9079L33.6977 14.4346ZM32.9555 13.934L31.9774 15.0713C32.0217 15.1094 32.0683 15.1449 32.1168 15.1776L32.9555 13.934ZM32.274 13.3479L31.0233 14.1759C31.0995 14.291 31.1912 14.3951 31.2959 14.4851L32.274 13.3479ZM31.7525 12.5602L33.0033 11.7321C32.9548 11.659 32.9001 11.5903 32.8397 11.5267L31.7525 12.5602ZM31.1398 11.9157L32.2269 10.8822C32.0306 10.6757 31.7796 10.5294 31.5032 10.4604L31.1398 11.9157ZM30.1791 11.6758L29.1185 12.7365C29.3108 12.9288 29.5518 13.0652 29.8157 13.1311L30.1791 11.6758ZM29.546 11.0428L28.4149 12.0279C28.4375 12.0539 28.4611 12.0791 28.4854 12.1034L29.546 11.0428ZM28.9595 10.3694L27.685 11.1603C27.7275 11.2288 27.7755 11.2937 27.8284 11.3545L28.9595 10.3694ZM28.4804 9.59731L29.755 8.80637C29.68 8.68559 29.5883 8.57607 29.4825 8.48111L28.4804 9.59731ZM27.8176 9.00228L26.5423 9.79194C26.6174 9.91323 26.7094 10.0232 26.8156 10.1185L27.8176 9.00228ZM27.3394 8.22994L28.6147 7.44029C28.5883 7.39758 28.5597 7.35624 28.5291 7.3164L27.3394 8.22994ZM26.7922 7.5173L27.9819 6.60376C27.7872 6.35021 27.5166 6.16549 27.2096 6.07654L26.7922 7.5173ZM25.7969 7.22898L24.5325 8.03591C24.7285 8.34306 25.0296 8.56836 25.3796 8.66974L25.7969 7.22898ZM25.3031 6.45508L26.5675 5.64814C26.5627 5.64054 26.5578 5.63297 26.5528 5.62545L25.3031 6.45508ZM24.7898 5.68186L26.0394 4.85223C25.9675 4.74393 25.8819 4.64543 25.7846 4.55921L24.7898 5.68186ZM24.1051 5.07518L25.0999 3.95253C25.0268 3.88776 24.9476 3.83028 24.8633 3.78091L24.1051 5.07518ZM23.3041 4.60594L24.0623 3.31167C23.9609 3.25223 23.8528 3.20494 23.7403 3.17075L23.3041 4.60594ZM22.3826 4.3259L21.5349 5.56339C21.6612 5.6499 21.8 5.71658 21.9465 5.76109L22.3826 4.3259ZM21.6377 3.81561L20.7428 5.01936C20.7583 5.03091 20.774 5.04216 20.79 5.0531L21.6377 3.81561ZM20.8998 3.26694L21.7947 2.06318C21.7061 1.99729 21.6105 1.94139 21.5096 1.89649L20.8998 3.26694ZM20.0602 2.89337L18.9645 3.91775C19.1017 4.06448 19.2669 4.18216 19.4504 4.26382L20.0602 2.89337ZM19.3429 2.12602L20.4386 1.10164C20.2005 0.846983 19.8812 0.683202 19.5355 0.638439L19.3429 2.12602ZM18.3849 2.00198L18.5775 0.5144C18.3877 0.489832 18.195 0.501792 18.0098 0.549636L18.3849 2.00198ZM17.3801 2.26147L17.2305 3.75399C17.4064 3.77162 17.584 3.75802 17.7552 3.71382L17.3801 2.26147ZM16.4567 2.1689L15.7314 3.48187C15.9092 3.58008 16.105 3.64116 16.3071 3.66142L16.4567 2.1689ZM15.5563 1.67147L16.2817 0.358508C16.1392 0.279807 15.9849 0.224815 15.8248 0.195689L15.5563 1.67147ZM14.6136 1.5L14.8821 0.0242118C14.654 -0.017279 14.4193 -0.00533104 14.1966 0.0591176L14.6136 1.5ZM13.6493 1.77907L13.9777 3.24268C14.0074 3.236 14.037 3.22842 14.0662 3.21995L13.6493 1.77907ZM12.7275 1.9859L12.1757 3.38071C12.4556 3.49143 12.7623 3.5154 13.0559 3.4495L12.7275 1.9859ZM11.6963 1.57792L12.2481 0.183109C11.7478 -0.0148524 11.1797 0.0703821 10.7594 0.406473L11.6963 1.57792ZM10.8951 2.21872L11.6621 3.50779C11.7213 3.47253 11.7781 3.43323 11.8319 3.39016L10.8951 2.21872ZM10.083 2.70188L10.6502 4.09051C10.7192 4.06233 10.786 4.02905 10.85 3.99095L10.083 2.70188ZM9.19437 3.06486L8.62717 1.67623C8.57355 1.69814 8.52124 1.72313 8.47051 1.75108L9.19437 3.06486ZM8.35383 3.52798L7.62997 2.21419C7.60613 2.22733 7.58264 2.24112 7.55955 2.25553L8.35383 3.52798ZM7.54213 4.03465L6.74785 2.76221C6.61612 2.84443 6.49796 2.94662 6.39759 3.0651L7.54213 4.03465ZM6.90804 4.78319L7.85907 5.94317C7.92919 5.88567 7.99396 5.82193 8.05258 5.75274L6.90804 4.78319ZM6.05475 5.48277L5.10372 4.32279C4.74739 4.61494 4.54511 5.05464 4.5551 5.51532C4.5651 5.97599 4.78628 6.40651 5.15495 6.68292L6.05475 5.48277ZM6.97701 6.17423L6.07721 7.37438C6.27677 7.52399 6.51048 7.62149 6.75721 7.65804L6.97701 6.17423ZM7.9696 6.32126L7.74979 7.80507C7.8676 7.82252 7.98707 7.82588 8.10568 7.81508L7.9696 6.32126ZM8.98061 6.22916L9.3541 4.77641C9.18785 4.73366 9.01548 4.71977 8.84453 4.73535L8.98061 6.22916ZM9.95759 6.48034L9.5841 7.93309C9.59092 7.93485 9.59776 7.93655 9.6046 7.93821L9.95759 6.48034ZM10.9339 6.71673L10.5809 8.1746C10.648 8.19084 10.7161 8.20243 10.7847 8.20929L10.9339 6.71673ZM11.9199 6.8153L11.7707 8.30786C11.7928 8.31007 11.815 8.3118 11.8373 8.31302L11.9199 6.8153ZM12.9191 6.87041L13.6597 5.56601C13.4583 5.45161 13.233 5.38544 13.0017 5.37268L12.9191 6.87041ZM13.7794 7.35889L13.0388 8.66329C13.1036 8.70007 13.171 8.73197 13.2405 8.75873L13.7794 7.35889ZM14.7468 7.73131L16.1954 7.34203C16.071 6.8792 15.7329 6.50366 15.2857 6.33147L14.7468 7.73131ZM15.0149 8.72917L16.479 9.05555C16.5316 8.81924 16.5263 8.5737 16.4635 8.33989L15.0149 8.72917ZM14.7987 9.69881L13.3347 9.37243C13.3148 9.46177 13.3031 9.55273 13.2997 9.6442L14.7987 9.69881ZM14.7636 10.6637L16.2533 10.8389C16.258 10.7988 16.2611 10.7586 16.2626 10.7183L14.7636 10.6637ZM14.646 11.6642L15.6172 12.8073C15.9062 12.5618 16.0914 12.216 16.1357 11.8393L14.646 11.6642ZM13.8354 12.3529L12.8642 11.2097C12.5984 11.4355 12.4196 11.7469 12.3586 12.0903L13.8354 12.3529ZM13.6499 13.3961L14.7538 14.4118C14.9473 14.2014 15.0767 13.9401 15.1268 13.6587L13.6499 13.3961ZM12.9719 14.1331L13.9348 15.2832C13.9847 15.2415 14.0317 15.1965 14.0758 15.1487L12.9719 14.1331ZM12.2014 14.7781L11.2385 13.6279C11.1009 13.7432 10.985 13.8822 10.8965 14.0384L12.2014 14.7781ZM11.6886 15.6829L12.8503 16.6318C12.9039 16.5662 12.9518 16.4962 12.9935 16.4226L11.6886 15.6829ZM11.0384 16.4789L11.2421 17.965C11.6179 17.9135 11.9602 17.7216 12.2002 17.4278L11.0384 16.4789ZM9.85384 16.6412L9.65021 15.1551C9.23472 15.2121 8.86203 15.4403 8.62253 15.7846L9.85384 16.6412ZM9.25021 17.5089L10.2099 18.6617C10.3133 18.5756 10.4047 18.476 10.4815 18.3655L9.25021 17.5089ZM8.46517 18.1624L9.05559 19.5413C9.18896 19.4842 9.31334 19.408 9.42484 19.3152L8.46517 18.1624ZM7.50122 18.5751L6.9108 17.1962C6.74475 17.2673 6.59291 17.3678 6.46259 17.4929L7.50122 18.5751ZM6.75319 19.293L7.21899 20.7188C7.43333 20.6488 7.62913 20.5314 7.79182 20.3752L6.75319 19.293ZM5.75255 19.6199L5.28675 18.194C5.03905 18.275 4.8167 18.419 4.64161 18.612L5.75255 19.6199ZM5.02314 20.4239L5.06531 21.9233C5.47363 21.9118 5.85961 21.7343 6.13408 21.4318L5.02314 20.4239ZM3.91032 20.4552L3.86816 18.9558C3.59829 18.9634 3.33546 19.0436 3.10742 19.1882L3.91032 20.4552ZM3.04538 21.0033L3.7987 22.3004C3.81542 22.2907 3.83195 22.2807 3.84828 22.2703L3.04538 21.0033ZM2.19297 21.4983L1.98887 22.9844C2.32015 23.0299 2.65713 22.9634 2.94629 22.7955L2.19297 21.4983ZM1.50001 21.4032L1.70412 19.9171C1.18725 19.8461 0.670631 20.0488 0.339907 20.4523C0.00918365 20.8558 -0.0881289 21.4021 0.0829412 21.895L1.50001 21.4032ZM0.173019 22.1545C0.44466 22.9372 1.29931 23.3514 2.08194 23.0798C2.86456 22.8081 3.2788 21.9535 3.00716 21.1708L1.59009 21.6627L0.173019 22.1545ZM38.5901 16.5934L39.425 15.3473L39.3419 15.2916L38.507 16.5378L37.6721 17.7839L37.7552 17.8396L38.5901 16.5934ZM38.507 16.5378L39.1651 15.1899L38.4575 14.8443L37.7994 16.1923L37.1412 17.5402L37.8489 17.8857L38.507 16.5378ZM37.7994 16.1923L38.7322 15.0176L38.0232 14.4546L37.0904 15.6293L36.1576 16.804L36.8666 17.3669L37.7994 16.1923ZM37.0904 15.6293L36.9968 14.1322L35.9749 14.1961L36.0685 15.6932L36.1621 17.1902L37.184 17.1264L37.0904 15.6293ZM36.0685 15.6932L37.138 14.6414L36.4857 13.9782L35.4163 15.03L34.3468 16.0818L34.9991 16.745L36.0685 15.6932ZM35.4163 15.03L36.1209 13.7058L35.3384 13.2894L34.6338 14.6137L33.9292 15.9379L34.7117 16.3542L35.4163 15.03ZM34.6338 14.6137L34.9156 13.1404L33.9794 12.9613L33.6977 14.4346L33.4159 15.9079L34.3521 16.087L34.6338 14.6137ZM33.6977 14.4346L34.5364 13.1911L33.7943 12.6905L32.9555 13.934L32.1168 15.1776L32.8589 15.6782L33.6977 14.4346ZM32.9555 13.934L33.9337 12.7968L33.2522 12.2106L32.274 13.3479L31.2959 14.4851L31.9774 15.0713L32.9555 13.934ZM32.274 13.3479L33.5248 12.5198L33.0033 11.7321L31.7525 12.5602L30.5018 13.3883L31.0233 14.1759L32.274 13.3479ZM31.7525 12.5602L32.8397 11.5267L32.2269 10.8822L31.1398 11.9157L30.0527 12.9492L30.6654 13.5937L31.7525 12.5602ZM31.1398 11.9157L31.5032 10.4604L30.5425 10.2205L30.1791 11.6758L29.8157 13.1311L30.7764 13.371L31.1398 11.9157ZM30.1791 11.6758L31.2397 10.6151L30.6067 9.98206L29.546 11.0428L28.4854 12.1034L29.1185 12.7365L30.1791 11.6758ZM29.546 11.0428L30.6772 10.0576L30.0907 9.38419L28.9595 10.3694L27.8284 11.3545L28.4149 12.0279L29.546 11.0428ZM28.9595 10.3694L30.2341 9.57843L29.755 8.80637L28.4804 9.59731L27.2059 10.3882L27.685 11.1603L28.9595 10.3694ZM28.4804 9.59731L29.4825 8.48111L28.8197 7.88608L27.8176 9.00228L26.8156 10.1185L27.4784 10.7135L28.4804 9.59731ZM27.8176 9.00228L29.0929 8.21263L28.6147 7.44029L27.3394 8.22994L26.0641 9.0196L26.5423 9.79194L27.8176 9.00228ZM27.3394 8.22994L28.5291 7.3164L27.9819 6.60376L26.7922 7.5173L25.6025 8.43084L26.1497 9.14348L27.3394 8.22994ZM26.7922 7.5173L27.2096 6.07654L26.2143 5.78822L25.7969 7.22898L25.3796 8.66974L26.3748 8.95806L26.7922 7.5173ZM25.7969 7.22898L27.0614 6.42205L26.5675 5.64814L25.3031 6.45508L24.0386 7.26201L24.5325 8.03591L25.7969 7.22898ZM25.3031 6.45508L26.5528 5.62545L26.0394 4.85223L24.7898 5.68186L23.5401 6.51148L24.0534 7.2847L25.3031 6.45508ZM24.7898 5.68186L25.7846 4.55921L25.0999 3.95253L24.1051 5.07518L23.1103 6.19782L23.7949 6.8045L24.7898 5.68186ZM24.1051 5.07518L24.8633 3.78091L24.0623 3.31167L23.3041 4.60594L22.5459 5.9002L23.3469 6.36945L24.1051 5.07518ZM23.3041 4.60594L23.7403 3.17075L22.8188 2.89071L22.3826 4.3259L21.9465 5.76109L22.868 6.04113L23.3041 4.60594ZM22.3826 4.3259L23.2304 3.08841L22.4855 2.57813L21.6377 3.81561L20.79 5.0531L21.5349 5.56339L22.3826 4.3259ZM21.6377 3.81561L22.5327 2.61186L21.7947 2.06318L20.8998 3.26694L20.0048 4.47069L20.7428 5.01936L21.6377 3.81561ZM20.8998 3.26694L21.5096 1.89649L20.67 1.52292L20.0602 2.89337L19.4504 4.26382L20.2899 4.63739L20.8998 3.26694ZM20.0602 2.89337L21.156 1.86898L20.4386 1.10164L19.3429 2.12602L18.2471 3.1504L18.9645 3.91775L20.0602 2.89337ZM19.3429 2.12602L19.5355 0.638439L18.5775 0.5144L18.3849 2.00198L18.1923 3.48957L19.1502 3.6136L19.3429 2.12602ZM18.3849 2.00198L18.0098 0.549636L17.005 0.809124L17.3801 2.26147L17.7552 3.71382L18.7599 3.45433L18.3849 2.00198ZM17.3801 2.26147L17.5297 0.768953L16.6064 0.676383L16.4567 2.1689L16.3071 3.66142L17.2305 3.75399L17.3801 2.26147ZM16.4567 2.1689L17.1821 0.855936L16.2817 0.358508L15.5563 1.67147L14.831 2.98444L15.7314 3.48187L16.4567 2.1689ZM15.5563 1.67147L15.8248 0.195689L14.8821 0.0242118L14.6136 1.5L14.3452 2.97578L15.2879 3.14726L15.5563 1.67147ZM14.6136 1.5L14.1966 0.0591176L13.2323 0.338193L13.6493 1.77907L14.0662 3.21995L15.0306 2.94087L14.6136 1.5ZM13.6493 1.77907L13.3208 0.315466L12.3991 0.522293L12.7275 1.9859L13.0559 3.4495L13.9777 3.24268L13.6493 1.77907ZM12.7275 1.9859L13.2794 0.591091L12.2481 0.183109L11.6963 1.57792L11.1445 2.97273L12.1757 3.38071L12.7275 1.9859ZM11.6963 1.57792L10.7594 0.406473L9.95819 1.04727L10.8951 2.21872L11.8319 3.39016L12.6332 2.74936L11.6963 1.57792ZM10.8951 2.21872L10.128 0.929651L9.31602 1.41281L10.083 2.70188L10.85 3.99095L11.6621 3.50779L10.8951 2.21872ZM10.083 2.70188L9.51584 1.31325L8.62717 1.67623L9.19437 3.06486L9.76157 4.45349L10.6502 4.09051L10.083 2.70188ZM9.19437 3.06486L8.47051 1.75108L7.62997 2.21419L8.35383 3.52798L9.07769 4.84176L9.91823 4.37864L9.19437 3.06486ZM8.35383 3.52798L7.55955 2.25553L6.74785 2.76221L7.54213 4.03465L8.33641 5.3071L9.14811 4.80042L8.35383 3.52798ZM7.54213 4.03465L6.39759 3.0651L5.7635 3.81364L6.90804 4.78319L8.05258 5.75274L8.68667 5.0042L7.54213 4.03465ZM6.90804 4.78319L5.95701 3.62321L5.10372 4.32279L6.05475 5.48277L7.00578 6.64275L7.85907 5.94317L6.90804 4.78319ZM6.05475 5.48277L5.15495 6.68292L6.07721 7.37438L6.97701 6.17423L7.87681 4.97408L6.95455 4.28262L6.05475 5.48277ZM6.97701 6.17423L6.75721 7.65804L7.74979 7.80507L7.9696 6.32126L8.1894 4.83746L7.19681 4.69042L6.97701 6.17423ZM7.9696 6.32126L8.10568 7.81508L9.11669 7.72298L8.98061 6.22916L8.84453 4.73535L7.83351 4.82745L7.9696 6.32126ZM8.98061 6.22916L8.60712 7.68192L9.5841 7.93309L9.95759 6.48034L10.3311 5.02758L9.3541 4.77641L8.98061 6.22916ZM9.95759 6.48034L9.6046 7.93821L10.5809 8.1746L10.9339 6.71673L11.2869 5.25885L10.3106 5.02246L9.95759 6.48034ZM10.9339 6.71673L10.7847 8.20929L11.7707 8.30786L11.9199 6.8153L12.0691 5.32274L11.0831 5.22417L10.9339 6.71673ZM11.9199 6.8153L11.8373 8.31302L12.8365 8.36813L12.9191 6.87041L13.0017 5.37268L12.0025 5.31758L11.9199 6.8153ZM12.9191 6.87041L12.1785 8.17481L13.0388 8.66329L13.7794 7.35889L14.5201 6.05449L13.6597 5.56601L12.9191 6.87041ZM13.7794 7.35889L13.2405 8.75873L14.2078 9.13115L14.7468 7.73131L15.2857 6.33147L14.3184 5.95905L13.7794 7.35889ZM14.7468 7.73131L13.2981 8.12058L13.5663 9.11844L15.0149 8.72917L16.4635 8.33989L16.1954 7.34203L14.7468 7.73131ZM15.0149 8.72917L13.5508 8.40279L13.3347 9.37243L14.7987 9.69881L16.2628 10.0252L16.479 9.05555L15.0149 8.72917ZM14.7987 9.69881L13.2997 9.6442L13.2646 10.6091L14.7636 10.6637L16.2626 10.7183L16.2978 9.75343L14.7987 9.69881ZM14.7636 10.6637L13.2738 10.4886L13.1562 11.4891L14.646 11.6642L16.1357 11.8393L16.2533 10.8389L14.7636 10.6637ZM14.646 11.6642L13.6748 10.5211L12.8642 11.2097L13.8354 12.3529L14.8066 13.496L15.6172 12.8073L14.646 11.6642ZM13.8354 12.3529L12.3586 12.0903L12.1731 13.1336L13.6499 13.3961L15.1268 13.6587L15.3122 12.6154L13.8354 12.3529ZM13.6499 13.3961L12.5461 12.3805L11.868 13.1174L12.9719 14.1331L14.0758 15.1487L14.7538 14.4118L13.6499 13.3961ZM12.9719 14.1331L12.009 12.9829L11.2385 13.6279L12.2014 14.7781L13.1643 15.9282L13.9348 15.2832L12.9719 14.1331ZM12.2014 14.7781L10.8965 14.0384L10.3836 14.9433L11.6886 15.6829L12.9935 16.4226L13.5064 15.5178L12.2014 14.7781ZM11.6886 15.6829L10.5268 14.7341L9.87669 15.5301L11.0384 16.4789L12.2002 17.4278L12.8503 16.6318L11.6886 15.6829ZM11.0384 16.4789L10.8348 14.9928L9.65021 15.1551L9.85384 16.6412L10.0575 18.1274L11.2421 17.965L11.0384 16.4789ZM9.85384 16.6412L8.62253 15.7846L8.01889 16.6522L9.25021 17.5089L10.4815 18.3655L11.0852 17.4979L9.85384 16.6412ZM9.25021 17.5089L8.29054 16.356L7.5055 17.0095L8.46517 18.1624L9.42484 19.3152L10.2099 18.6617L9.25021 17.5089ZM8.46517 18.1624L7.87475 16.7835L6.9108 17.1962L7.50122 18.5751L8.09164 19.954L9.05559 19.5413L8.46517 18.1624ZM7.50122 18.5751L6.46259 17.4929L5.71456 18.2108L6.75319 19.293L7.79182 20.3752L8.53985 19.6574L7.50122 18.5751ZM6.75319 19.293L6.28739 17.8672L5.28675 18.194L5.75255 19.6199L6.21835 21.0457L7.21899 20.7188L6.75319 19.293ZM5.75255 19.6199L4.64161 18.612L3.9122 19.416L5.02314 20.4239L6.13408 21.4318L6.86349 20.6278L5.75255 19.6199ZM5.02314 20.4239L4.98098 18.9245L3.86816 18.9558L3.91032 20.4552L3.95249 21.9546L5.06531 21.9233L5.02314 20.4239ZM3.91032 20.4552L3.10742 19.1882L2.24247 19.7363L3.04538 21.0033L3.84828 22.2703L4.71323 21.7222L3.91032 20.4552ZM3.04538 21.0033L2.29205 19.7062L1.43965 20.2012L2.19297 21.4983L2.94629 22.7955L3.7987 22.3004L3.04538 21.0033ZM2.19297 21.4983L2.39708 20.0123L1.70412 19.9171L1.50001 21.4032L1.2959 22.8892L1.98887 22.9844L2.19297 21.4983ZM1.50001 21.4032L0.0829412 21.895L0.173019 22.1545L1.59009 21.6627L3.00716 21.1708L2.91708 20.9113L1.50001 21.4032Z" fill="white"/>
</svg>
